<?xml version="1.0" encoding="UTF-8"?>
<svg version="1.1" xmlns="http://www.w3.org/2000/svg" width="561" height="571">
<path d="M0 0 C1.44652451 -0.01058945 1.44652451 -0.01058945 2.92227173 -0.02139282 C42.92800864 -0.24781383 42.92800864 -0.24781383 60.5859375 3.203125 C61.62379395 3.39648438 62.66165039 3.58984375 63.73095703 3.7890625 C88.36377653 8.47345488 112.09899071 16.08377243 134.5859375 27.203125 C135.37371582 27.59081055 136.16149414 27.97849609 136.97314453 28.37792969 C154.72049082 37.2028166 171.34240047 47.52241626 186.5859375 60.203125 C187.11848145 60.63947266 187.65102539 61.07582031 188.19970703 61.52539062 C200.80198528 71.85199192 213.02619282 82.76828547 223.5859375 95.203125 C224.34777344 96.07710938 225.10960937 96.95109375 225.89453125 97.8515625 C259.87526698 137.54106184 281.30758658 185.99535692 290.5859375 237.203125 C290.76527832 238.16428223 290.94461914 239.12543945 291.12939453 240.11572266 C296.46168707 270.08140633 296.11669246 304.3016918 290.5859375 334.203125 C290.39789551 335.27304687 290.20985352 336.34296875 290.01611328 337.4453125 C285.50901588 362.51581771 277.96061635 387.36087487 266.5859375 410.203125 C265.86833252 411.65477051 265.86833252 411.65477051 265.13623047 413.13574219 C258.70696462 426.04971566 252.03587204 438.5043673 243.5859375 450.203125 C243.06418945 450.94224121 242.54244141 451.68135742 242.00488281 452.44287109 C234.60859305 462.91845865 226.82798229 472.6056416 217.90625 481.81347656 C216.24041116 483.56679659 214.6926033 485.40490521 213.1484375 487.265625 C204.42666091 497.31929851 193.94117327 505.87550285 183.34814453 513.86914062 C181.60249717 515.19058939 179.87349437 516.53183047 178.14453125 517.875 C135.77616433 550.34427077 79.78970873 571.14414956 26.171875 571.40625 C25.20752533 571.41330963 24.24317566 571.42036926 23.24960327 571.42764282 C-16.75613364 571.65406383 -16.75613364 571.65406383 -34.4140625 568.203125 C-35.45191895 568.00976562 -36.48977539 567.81640625 -37.55908203 567.6171875 C-62.19190153 562.93279512 -85.92711571 555.32247757 -108.4140625 544.203125 C-109.20184082 543.81543945 -109.98961914 543.42775391 -110.80126953 543.02832031 C-128.54861582 534.2034334 -145.17052547 523.88383374 -160.4140625 511.203125 C-161.21287842 510.54860352 -161.21287842 510.54860352 -162.02783203 509.88085938 C-174.63011028 499.55425808 -186.85431782 488.63796453 -197.4140625 476.203125 C-198.17589844 475.32914062 -198.93773437 474.45515625 -199.72265625 473.5546875 C-233.70339198 433.86518816 -255.13571158 385.41089308 -264.4140625 334.203125 C-264.59340332 333.24196777 -264.77274414 332.28081055 -264.95751953 331.29052734 C-270.28981207 301.32484367 -269.94481746 267.1045582 -264.4140625 237.203125 C-264.22602051 236.13320312 -264.03797852 235.06328125 -263.84423828 233.9609375 C-259.33714088 208.89043229 -251.78874135 184.04537513 -240.4140625 161.203125 C-239.93565918 160.23536133 -239.45725586 159.26759766 -238.96435547 158.27050781 C-232.53508962 145.35653434 -225.86399704 132.9018827 -217.4140625 121.203125 C-216.63144043 120.09445068 -216.63144043 120.09445068 -215.83300781 118.96337891 C-208.43671805 108.48779135 -200.65610729 98.8006084 -191.734375 89.59277344 C-190.06853616 87.83945341 -188.5207283 86.00134479 -186.9765625 84.140625 C-178.25478591 74.08695149 -167.76929827 65.53074715 -157.17626953 57.53710938 C-155.43062217 56.21566061 -153.70161937 54.87441953 -151.97265625 53.53125 C-109.60428933 21.06197923 -53.61783373 0.26210044 0 0 Z " fill="#E77866" transform="translate(267.4140625,-0.203125)"/>
<path d="M0 0 C1.44652451 -0.01058945 1.44652451 -0.01058945 2.92227173 -0.02139282 C42.92800864 -0.24781383 42.92800864 -0.24781383 60.5859375 3.203125 C61.62379395 3.39648438 62.66165039 3.58984375 63.73095703 3.7890625 C88.36377653 8.47345488 112.09899071 16.08377243 134.5859375 27.203125 C135.37371582 27.59081055 136.16149414 27.97849609 136.97314453 28.37792969 C154.72049082 37.2028166 171.34240047 47.52241626 186.5859375 60.203125 C187.11848145 60.63947266 187.65102539 61.07582031 188.19970703 61.52539062 C200.80198528 71.85199192 213.02619282 82.76828547 223.5859375 95.203125 C224.34777344 96.07710938 225.10960937 96.95109375 225.89453125 97.8515625 C259.87526698 137.54106184 281.30758658 185.99535692 290.5859375 237.203125 C290.76527832 238.16428223 290.94461914 239.12543945 291.12939453 240.11572266 C296.46168707 270.08140633 296.11669246 304.3016918 290.5859375 334.203125 C290.39789551 335.27304687 290.20985352 336.34296875 290.01611328 337.4453125 C285.50901588 362.51581771 277.96061635 387.36087487 266.5859375 410.203125 C265.86833252 411.65477051 265.86833252 411.65477051 265.13623047 413.13574219 C258.70696462 426.04971566 252.03587204 438.5043673 243.5859375 450.203125 C243.06418945 450.94224121 242.54244141 451.68135742 242.00488281 452.44287109 C234.60859305 462.91845865 226.82798229 472.6056416 217.90625 481.81347656 C216.24041116 483.56679659 214.6926033 485.40490521 213.1484375 487.265625 C204.42666091 497.31929851 193.94117327 505.87550285 183.34814453 513.86914062 C181.60249717 515.19058939 179.87349437 516.53183047 178.14453125 517.875 C135.77616433 550.34427077 79.78970873 571.14414956 26.171875 571.40625 C25.20752533 571.41330963 24.24317566 571.42036926 23.24960327 571.42764282 C-16.75613364 571.65406383 -16.75613364 571.65406383 -34.4140625 568.203125 C-35.45191895 568.00976562 -36.48977539 567.81640625 -37.55908203 567.6171875 C-62.19190153 562.93279512 -85.92711571 555.32247757 -108.4140625 544.203125 C-109.20184082 543.81543945 -109.98961914 543.42775391 -110.80126953 543.02832031 C-128.54861582 534.2034334 -145.17052547 523.88383374 -160.4140625 511.203125 C-161.21287842 510.54860352 -161.21287842 510.54860352 -162.02783203 509.88085938 C-174.63011028 499.55425808 -186.85431782 488.63796453 -197.4140625 476.203125 C-198.17589844 475.32914062 -198.93773437 474.45515625 -199.72265625 473.5546875 C-233.70339198 433.86518816 -255.13571158 385.41089308 -264.4140625 334.203125 C-264.59340332 333.24196777 -264.77274414 332.28081055 -264.95751953 331.29052734 C-270.28981207 301.32484367 -269.94481746 267.1045582 -264.4140625 237.203125 C-264.22602051 236.13320312 -264.03797852 235.06328125 -263.84423828 233.9609375 C-259.33714088 208.89043229 -251.78874135 184.04537513 -240.4140625 161.203125 C-239.93565918 160.23536133 -239.45725586 159.26759766 -238.96435547 158.27050781 C-232.53508962 145.35653434 -225.86399704 132.9018827 -217.4140625 121.203125 C-216.63144043 120.09445068 -216.63144043 120.09445068 -215.83300781 118.96337891 C-208.43671805 108.48779135 -200.65610729 98.8006084 -191.734375 89.59277344 C-190.06853616 87.83945341 -188.5207283 86.00134479 -186.9765625 84.140625 C-178.25478591 74.08695149 -167.76929827 65.53074715 -157.17626953 57.53710938 C-155.43062217 56.21566061 -153.70161937 54.87441953 -151.97265625 53.53125 C-109.60428933 21.06197923 -53.61783373 0.26210044 0 0 Z M-36.6015625 33.390625 C-37.55804688 33.60565674 -38.51453125 33.82068848 -39.5 34.04223633 C-86.96772003 45.03659795 -128.46895061 68.47632032 -163.4140625 102.203125 C-164.35507813 103.10289063 -165.29609375 104.00265625 -166.265625 104.9296875 C-172.14000038 110.65856752 -177.34285412 116.75919298 -182.4140625 123.203125 C-183.56648438 124.61271484 -183.56648438 124.61271484 -184.7421875 126.05078125 C-210.92596376 158.78050157 -227.05121902 198.18156844 -234.4140625 239.203125 C-234.73697266 240.91822266 -234.73697266 240.91822266 -235.06640625 242.66796875 C-237.27021547 254.90956594 -237.57593086 267.16577841 -237.5390625 279.578125 C-237.54292969 280.87234375 -237.54679687 282.1665625 -237.55078125 283.5 C-237.53788787 296.41916827 -236.87606648 309.15144344 -234.6640625 321.890625 C-234.48633301 322.91824951 -234.30860352 323.94587402 -234.12548828 325.00463867 C-229.75653227 349.5227045 -222.30818142 373.47164968 -210.37304688 395.42333984 C-209.38375035 397.25938151 -208.43500403 399.11236258 -207.4921875 400.97265625 C-192.41275237 430.45711961 -169.59596809 457.98194144 -143.4140625 478.203125 C-142.45757812 478.9765625 -141.50109375 479.75 -140.515625 480.546875 C-97.36875555 514.8904789 -42.61099222 534.04637778 12.4609375 533.578125 C13.89978806 533.57214294 13.89978806 533.57214294 15.3677063 533.56604004 C28.777024 533.50079399 41.95749219 533.10511481 55.17480469 530.64306641 C57.63154893 530.19480262 60.09141922 529.82494858 62.5625 529.46484375 C106.88606149 522.56788208 151.11576495 499.87970707 183.5859375 469.203125 C184.91455546 468.05182742 186.24778468 466.90582622 187.5859375 465.765625 C196.12993523 458.28747809 203.55539736 450.09986861 210.5859375 441.203125 C211.45850953 440.13189442 212.33224922 439.06161412 213.20703125 437.9921875 C230.15119081 417.11429174 243.08211571 393.3262713 252.5859375 368.203125 C252.95847656 367.275 253.33101562 366.346875 253.71484375 365.390625 C263.88330063 339.23177123 267.81314028 310.11086787 267.7734375 282.203125 C267.77283325 281.42111725 267.772229 280.6391095 267.77160645 279.83340454 C267.74779655 268.49684745 267.46014193 257.40506152 265.5859375 246.203125 C265.45703125 245.37699707 265.328125 244.55086914 265.1953125 243.69970703 C258.45194454 200.85902794 241.6509399 160.25744121 214.5859375 126.203125 C213.88210938 125.30722656 213.17828125 124.41132812 212.453125 123.48828125 C206.51233599 116.06761828 200.12193281 109.0972891 193.5859375 102.203125 C192.874375 101.44902344 192.1628125 100.69492188 191.4296875 99.91796875 C186.70132399 95.0442662 181.59386265 90.72567409 176.26269531 86.52490234 C175.07908179 85.59186745 173.89907583 84.65424733 172.72167969 83.71337891 C162.17007245 75.30061097 151.29657648 67.90649233 139.5859375 61.203125 C138.91159668 60.8117334 138.23725586 60.4203418 137.54248047 60.01708984 C124.81133547 52.69176567 111.30100951 47.38903122 97.5859375 42.203125 C96.86696289 41.92452637 96.14798828 41.64592773 95.40722656 41.35888672 C70.40251301 31.73317841 42.16915009 29.0153368 15.57958984 29.01782227 C12.9864838 29.01564644 10.39381193 28.99745542 7.80078125 28.97851562 C-7.20578233 28.92672921 -21.93896906 30.05433377 -36.6015625 33.390625 Z " fill="#034848" transform="translate(267.4140625,-0.203125)"/>
<path d="M0 0 C10.23 0 20.46 0 31 0 C31 74.25 31 148.5 31 225 C105.58 225 180.16 225 257 225 C257 235.56 257 246.12 257 257 C172.19 257 87.38 257 0 257 C0 172.19 0 87.38 0 0 Z " fill="#044A4A" transform="translate(170,137)"/>
<path d="M0 0 C0.66 0.33 1.32 0.66 2 1 C-6.58 9.58 -15.16 18.16 -24 27 C-24.66 26.67 -25.32 26.34 -26 26 C-17.98378498 17.27533792 -10.01314163 8.7112434 -1 1 C-0.67 0.67 -0.34 0.34 0 0 Z " fill="#012929" transform="translate(98,67)"/>
</svg>
